<?xml version="1.0" encoding="utf-8"?>
<svg width="69px" height="69px" viewBox="0 0 69 69" version="1.1" xmlns:xlink="http://www.w3.org/1999/xlink" xmlns="http://www.w3.org/2000/svg">
  <defs>
    <path d="M0 0L68 0L68 68L0 68L0 0Z" id="path_1" />
    <clipPath id="mask_1">
      <use xlink:href="#path_1" />
    </clipPath>
  </defs>
  <g id="Bookmark-icon" transform="translate(0.5 0.5)">
    <path d="M0 0L68 0L68 68L0 68L0 0Z" id="Background" fill="#FFFFFF" fill-opacity="0" fill-rule="evenodd" stroke="none" />
    <g clip-path="url(#mask_1)">
      <path d="M51 51L51 16.32C51 13.3158 48.5642 10.88 45.56 10.88L20.4 10.88C18.5225 10.88 17 12.4025 17 14.28L17 51.68L50.32 51.68C50.6954 51.68 51 51.3754 51 51L51 51Z" id="Shape" fill="#2A7AE4" stroke="#808080" stroke-width="1" />
      <path d="M27.88 51.68L27.88 10.88L20.4 10.88C18.5232 10.88 17 12.4032 17 14.28L17 51.68L27.88 51.68L27.88 51.68Z" id="Shape" fill="#2A7AE4" stroke="none" />
      <path d="M48.96 54.06C48.96 55.3921 49.8114 56.6998 51 57.12L20.06 57.12C18.3702 57.12 17 55.7498 17 54.06C17 52.3702 18.3702 51 20.06 51L51 51C49.8114 51.4202 48.96 52.7279 48.96 54.06L48.96 54.06Z" id="Shape" fill="#FEFDEF" stroke="none" />
      <path d="M32.98 9.17999L32.98 30.26L27.54 27.54L22.1 30.26L22.1 9.17999L32.98 9.17999Z" id="Shape" fill="#2A7AE4" stroke="none" />
      <path d="M51 57.8L20.06 57.8C17.9976 57.8 16.32 56.1218 16.32 54.06C16.32 51.9982 17.9976 50.32 20.06 50.32L51 50.32C51.3312 50.32 51.614 50.5587 51.6698 50.8851C51.7262 51.2108 51.5386 51.5304 51.2264 51.6406C50.322 51.9608 49.64 53.0006 49.64 54.06C49.64 55.1194 50.322 56.1592 51.2264 56.4794C51.5386 56.5896 51.7256 56.9092 51.6698 57.2349C51.614 57.5613 51.3312 57.8 51 57.8L51 57.8ZM20.06 51.68C18.7476 51.68 17.68 52.7476 17.68 54.06C17.68 55.3724 18.7476 56.44 20.06 56.44L49.0606 56.44C48.5724 55.7634 48.28 54.9222 48.28 54.06C48.28 53.1978 48.5724 52.3566 49.0606 51.68L20.06 51.68L20.06 51.68Z" id="Shape" fill="#1F212B" fill-rule="evenodd" stroke="none" />
      <path d="M48.62 53.72L21.42 53.72C21.2323 53.72 21.08 53.5677 21.08 53.38C21.08 53.1924 21.2323 53.04 21.42 53.04L48.62 53.04C48.8077 53.04 48.96 53.1924 48.96 53.38C48.96 53.5677 48.8077 53.72 48.62 53.72L48.62 53.72ZM48.62 55.08L27.54 55.08C27.3523 55.08 27.2 54.9277 27.2 54.74C27.2 54.5523 27.3523 54.4 27.54 54.4L48.62 54.4C48.8077 54.4 48.96 54.5523 48.96 54.74C48.96 54.9277 48.8077 55.08 48.62 55.08L48.62 55.08ZM17.68 54.06L16.32 54.06L16.32 14.28C16.32 12.0299 18.1499 10.2 20.4 10.2L22.1 10.2L22.1 11.56L20.4 11.56C18.8999 11.56 17.68 12.7799 17.68 14.28L17.68 54.06L17.68 54.06ZM51.68 51L50.32 51L50.32 16.32C50.32 13.6959 48.1848 11.56 45.56 11.56L32.98 11.56L32.98 10.2L45.56 10.2C48.9342 10.2 51.68 12.9452 51.68 16.32L51.68 51L51.68 51ZM27.54 40.8C27.3523 40.8 27.2 40.6477 27.2 40.46L27.2 27.54C27.2 27.3523 27.3523 27.2 27.54 27.2C27.7277 27.2 27.88 27.3523 27.88 27.54L27.88 40.46C27.88 40.6477 27.7277 40.8 27.54 40.8L27.54 40.8ZM27.54 44.2C27.3523 44.2 27.2 44.0477 27.2 43.86L27.2 42.5C27.2 42.3124 27.3523 42.16 27.54 42.16C27.7277 42.16 27.88 42.3124 27.88 42.5L27.88 43.86C27.88 44.0477 27.7277 44.2 27.54 44.2L27.54 44.2ZM27.54 46.24C27.3523 46.24 27.2 46.0877 27.2 45.9L27.2 45.22C27.2 45.0323 27.3523 44.88 27.54 44.88C27.7277 44.88 27.88 45.0323 27.88 45.22L27.88 45.9C27.88 46.0877 27.7277 46.24 27.54 46.24L27.54 46.24Z" id="Shape" fill="#1F212B" fill-rule="evenodd" stroke="none" />
      <path d="M32.98 30.6C32.9276 30.6 32.876 30.5878 32.8277 30.564L27.54 27.9201L22.2523 30.5647C22.1462 30.6163 22.0218 30.6102 21.9218 30.5504C21.8212 30.4871 21.76 30.3777 21.76 30.26L21.76 9.18003C21.76 8.99235 21.9123 8.84003 22.1 8.84003L32.98 8.84003C33.1677 8.84003 33.32 8.99235 33.32 9.18003L33.32 30.26C33.32 30.3777 33.2588 30.4871 33.1588 30.5497C33.1044 30.583 33.0419 30.6 32.98 30.6L32.98 30.6ZM27.54 27.2C27.5923 27.2 27.644 27.2123 27.6923 27.2361L32.64 29.7099L32.64 9.52002L22.44 9.52002L22.44 29.7099L27.3877 27.2354C27.4359 27.2123 27.4876 27.2 27.54 27.2L27.54 27.2Z" id="Shape" fill="#1F212B" fill-rule="evenodd" stroke="none" />
    </g>
  </g>
</svg>