<?xml version="1.0" encoding="utf-8"?>
<svg width="48px" height="48px" viewBox="0 0 48 48" version="1.1" xmlns:xlink="http://www.w3.org/1999/xlink" xmlns="http://www.w3.org/2000/svg">
  <defs>
    <linearGradient gradientUnits="userSpaceOnUse" x1="0" y1="3.9999995" x2="11.000002" y2="3.9999995" id="gradient_1">
      <stop offset="0%" stop-color="#2A7AE4" />
      <stop offset="10.8%" stop-color="#2A7AE4" />
    </linearGradient>
    <path d="M0 0L48 0L48 48L0 48L0 0Z" id="path_1" />
    <clipPath id="mask_1">
      <use xlink:href="#path_1" />
    </clipPath>
  </defs>
  <g id="Music-icon">
    <path d="M0 0L48 0L48 48L0 48L0 0Z" id="Background" fill="#FFFFFF" fill-opacity="0" fill-rule="evenodd" stroke="none" />
    <g clip-path="url(#mask_1)">
      <path d="M20 24C14.477 24 10 28.477 10 34C10 39.523 14.477 44 20 44C25.523 44 30 39.523 30 34C30 28.477 25.523 24 20 24L20 24Z" id="Shape" fill="#2A7AE4" stroke="none" />
      <path d="M39 12L30 12L30 4L39 4C40.105 4 41 4.895 41 6L41 10C41 11.105 40.105 12 39 12L39 12Z" id="Shape" fill="url(#gradient_1)" fill-rule="evenodd" stroke="none" />
      <path d="M30 4L28 4C25.791 4 24 5.791 24 8L24 34L30 34L30 4L30 4Z" id="Shape" fill="#2A7AE4" stroke="none" />
    </g>
  </g>
</svg>