<?xml version="1.0" encoding="utf-8"?>
<svg width="111px" height="58px" viewBox="0 0 111 58" version="1.1" xmlns:xlink="http://www.w3.org/1999/xlink" xmlns="http://www.w3.org/2000/svg">
  <g id="alura" fill="#2A7AE4">
    <path d="M34.7727 11.5455L34.7727 46.4545L30.75 46.4545L30.75 11.5455L34.7727 11.5455ZM70.0227 46.4545L70.0227 20.2727L73.9091 20.2727L73.9091 24.2273L74.1818 24.2273Q74.8977 22.2841 76.7727 21.0739Q78.6477 19.8636 81 19.8636Q81.4432 19.8636 82.108 19.8807Q82.7727 19.8977 83.1136 19.9318L83.1136 24.0227Q82.9091 23.9716 82.1847 23.8608Q81.4602 23.75 80.6591 23.75Q77.7955 23.75 75.9205 25.4886Q74.0455 27.2273 74.0455 29.8864L74.0455 46.4545L70.0227 46.4545ZM11.3864 47.0682Q8.89773 47.0682 6.86932 46.1222Q4.84091 45.1761 3.64773 43.3778Q2.45455 41.5795 2.45455 39.0227Q2.45455 36.7727 3.34091 35.3665Q4.22727 33.9602 5.71023 33.1591Q7.19318 32.358 8.99148 31.9574Q10.7898 31.5568 12.6136 31.3182Q15 31.0114 16.4915 30.8494Q17.983 30.6875 18.6733 30.2955Q19.3636 29.9034 19.3636 28.9318L19.3636 28.7955Q19.3636 26.2727 17.9915 24.875Q16.6193 23.4773 13.8409 23.4773Q10.9602 23.4773 9.32386 24.7386Q7.6875 26 7.02273 27.4318L3.20455 26.0682Q4.22727 23.6818 5.94034 22.3437Q7.65341 21.0057 9.69034 20.4687Q11.7273 19.9318 13.7045 19.9318Q14.9659 19.9318 16.6108 20.2301Q18.2557 20.5284 19.7983 21.4489Q21.3409 22.3693 22.3636 24.2273Q23.3864 26.0852 23.3864 29.2045L23.3864 46.4545L19.3636 46.4545L19.3636 42.9091L19.1591 42.9091Q18.75 43.7614 17.7955 44.733Q16.8409 45.7045 15.2557 46.3864Q13.6705 47.0682 11.3864 47.0682ZM91.0739 46.1222Q93.1023 47.0682 95.5909 47.0682Q97.875 47.0682 99.4602 46.3864Q101.045 45.7045 102 44.733Q102.955 43.7614 103.364 42.9091L103.568 42.9091L103.568 46.4545L107.591 46.4545L107.591 29.2045Q107.591 26.0852 106.568 24.2273Q105.545 22.3693 104.003 21.4489Q102.46 20.5284 100.815 20.2301Q99.1705 19.9318 97.9091 19.9318Q95.9318 19.9318 93.8949 20.4687Q91.858 21.0057 90.1449 22.3437Q88.4318 23.6818 87.4091 26.0682L91.2273 27.4318Q91.892 26 93.5284 24.7386Q95.1648 23.4773 98.0455 23.4773Q100.824 23.4773 102.196 24.875Q103.568 26.2727 103.568 28.7955L103.568 28.9318Q103.568 29.9034 102.878 30.2955Q102.188 30.6875 100.696 30.8494Q99.2045 31.0114 96.8182 31.3182Q94.9943 31.5568 93.196 31.9574Q91.3977 32.358 89.9148 33.1591Q88.4318 33.9602 87.5455 35.3665Q86.6591 36.7727 86.6591 39.0227Q86.6591 41.5795 87.8523 43.3778Q89.0455 45.1761 91.0739 46.1222ZM58.6364 20.2727L58.6364 35.75Q58.6364 38.2045 57.571 39.7898Q56.5057 41.375 54.946 42.142Q53.3864 42.9091 51.8864 42.9091Q49.3807 42.9091 47.7699 41.2045Q46.1591 39.5 46.1591 36.6364L46.1591 20.2727L42.1364 20.2727L42.1364 36.9091Q42.1364 41.9205 44.5227 44.358Q46.9091 46.7955 50.5909 46.7955Q53.5568 46.7955 55.5 45.4063Q57.4432 44.017 58.3636 42.0227L58.6364 42.0227L58.6364 46.4545L62.6591 46.4545L62.6591 20.2727L58.6364 20.2727ZM12 43.4545Q14.3864 43.4545 16.0313 42.517Q17.6761 41.5795 18.5199 40.0966Q19.3636 38.6136 19.3636 36.9773L19.3636 33.2955Q19.108 33.6023 18.2472 33.8494Q17.3864 34.0966 16.2699 34.2756Q15.1534 34.4545 14.1051 34.5824Q13.0568 34.7102 12.4091 34.7955Q10.8409 35 9.4858 35.4517Q8.13068 35.9034 7.30398 36.7983Q6.47727 37.6932 6.47727 39.2273Q6.47727 41.3239 8.03693 42.3892Q9.59659 43.4545 12 43.4545ZM100.236 42.517Q98.5909 43.4545 96.2045 43.4545Q93.8011 43.4545 92.2415 42.3892Q90.6818 41.3239 90.6818 39.2273Q90.6818 37.6932 91.5085 36.7983Q92.3352 35.9034 93.6903 35.4517Q95.0455 35 96.6136 34.7955Q97.2614 34.7102 98.3097 34.5824Q99.358 34.4545 100.474 34.2756Q101.591 34.0966 102.452 33.8494Q103.313 33.6023 103.568 33.2955L103.568 36.9773Q103.568 38.6136 102.724 40.0966Q101.881 41.5795 100.236 42.517Z" />
  </g>
</svg>