<?xml version="1.0" encoding="utf-8"?>
<svg width="27px" height="22px" viewBox="0 0 27 22" version="1.1" xmlns:xlink="http://www.w3.org/1999/xlink" xmlns="http://www.w3.org/2000/svg">
  <g id="EPI" fill="#2A7AE4">
    <path d="M1.58523 17.5455L1.58523 4.45454L9.4858 4.45454L9.4858 5.86079L3.17045 5.86079L3.17045 10.2841L9.0767 10.2841L9.0767 11.6903L3.17045 11.6903L3.17045 16.1392L9.58807 16.1392L9.58807 17.5455L1.58523 17.5455ZM12.3494 17.5455L12.3494 4.45454L16.7727 4.45454Q18.3132 4.45454 19.2944 5.00746Q20.2756 5.56037 20.7486 6.5Q21.2216 7.43963 21.2216 8.59659Q21.2216 9.75355 20.7518 10.6996Q20.282 11.6456 19.304 12.2049Q18.326 12.7642 16.7983 12.7642L13.9347 12.7642L13.9347 17.5455L12.3494 17.5455ZM25.3636 17.5455L25.3636 4.45454L23.7784 4.45454L23.7784 17.5455L25.3636 17.5455ZM13.9347 11.358L16.7472 11.358Q18.326 11.358 18.994 10.5653Q19.6619 9.77273 19.6619 8.59659Q19.6619 7.41406 18.9908 6.63743Q18.3196 5.86079 16.7216 5.86079L13.9347 5.86079L13.9347 11.358Z" />
  </g>
</svg>