<?xml version="1.0" encoding="utf-8"?>
<svg width="55px" height="28px" viewBox="0 0 55 28" version="1.1" xmlns:xlink="http://www.w3.org/1999/xlink" xmlns="http://www.w3.org/2000/svg">
  <g id="UTN" fill="#2A7AE4">
    <path d="M13.5682 5.77273L15.6818 5.77273L15.6818 17.3295Q15.6818 19.1193 14.8423 20.5213Q14.0028 21.9233 12.4773 22.7287Q10.9517 23.5341 8.89773 23.5341Q6.84375 23.5341 5.31818 22.7287Q3.79261 21.9233 2.95313 20.5213Q2.11364 19.1193 2.11364 17.3295L2.11364 5.77273L4.22727 5.77273L4.22727 17.1591Q4.22727 19.0767 5.47159 20.3168Q6.71591 21.5568 8.89773 21.5568Q11.0881 21.5568 12.3281 20.3168Q13.5682 19.0767 13.5682 17.1591L13.5682 5.77273ZM18.9545 7.64773L18.9545 5.77273L32.0455 5.77273L32.0455 7.64773L26.5568 7.64773L26.5568 23.2273L24.4432 23.2273L24.4432 7.64773L18.9545 7.64773ZM49.1591 23.2273L49.1591 5.77273L47.0795 5.77273L47.0795 19.5114L46.9091 19.5114L37.3636 5.77273L35.3182 5.77273L35.3182 23.2273L37.4318 23.2273L37.4318 9.52273L37.6023 9.52273L47.1136 23.2273L49.1591 23.2273Z" />
  </g>
</svg>